# Blender v3.2.1 OBJ File: 'coordinate_probe.blend'
# www.blender.org
mtllib coordinate_probe.mtl
o Text
v 4.000000 0.687000 0.682000
v 4.000000 0.569000 0.682000
v 4.000000 0.356000 0.422000
v 4.000000 0.142000 0.682000
v 4.000000 0.023000 0.682000
v 4.000000 0.296000 0.353000
v 4.000000 0.002000 0.000000
v 4.000000 0.121000 0.000000
v 4.000000 0.356000 0.282000
v 4.000000 0.588000 0.000000
v 4.000000 0.706000 0.000000
v 4.000000 0.415000 0.353000
v 4.100000 0.023000 0.682000
v 4.100000 0.296000 0.353000
v 4.100000 0.142000 0.682000
v 4.100000 0.356000 0.422000
v 4.100000 0.569000 0.682000
v 4.100000 0.687000 0.682000
v 4.100000 0.415000 0.353000
v 4.100000 0.002000 -0.000000
v 4.100000 0.356000 0.282000
v 4.100000 0.706000 -0.000000
v 4.100000 0.121000 -0.000000
v 4.100000 0.588000 -0.000000
v 0.301000 5.000000 0.447000
v 0.118000 5.000000 0.682000
v 0.000000 5.000000 0.682000
v 0.253000 5.000000 0.361000
v 0.253000 5.000000 0.000000
v 0.351000 5.000000 0.000000
v 0.351000 5.000000 0.360000
v 0.604000 5.000000 0.682000
v 0.486000 5.000000 0.682000
v 0.000000 5.100000 0.682000
v 0.253000 5.100000 0.361000
v 0.118000 5.100000 0.682000
v 0.301000 5.100000 0.447000
v 0.486000 5.100000 0.682000
v 0.604000 5.100000 0.682000
v 0.351000 5.100000 0.360000
v 0.253000 5.100000 0.000000
v 0.351000 5.100000 0.000000
v 0.450000 0.594000 6.000000
v 0.016000 -0.000000 6.000000
v 0.631000 -0.000000 6.000000
v 0.631000 0.088000 6.000000
v 0.197000 0.088000 6.000000
v 0.631000 0.682000 6.000000
v 0.043000 0.682000 6.000000
v 0.043000 0.594000 6.000000
v 0.043000 0.682000 6.100000
v 0.043000 0.594000 6.100000
v 0.631000 0.682000 6.100000
v 0.450000 0.594000 6.100000
v 0.197000 0.088000 6.100000
v 0.016000 -0.000000 6.100000
v 0.631000 0.088000 6.100000
v 0.631000 -0.000000 6.100000
v 1.000000 1.000000 1.000000
v 1.000000 1.000000 -0.000000
v 1.000000 0.000000 1.000000
v 1.000000 -0.000000 -0.000000
v 0.000000 1.000000 1.000000
v 0.000000 1.000000 -0.000000
v 0.000000 0.000000 1.000000
v 0.000000 -0.000000 -0.000000
v 3.000000 1.000000 1.000000
v 3.000000 1.000000 -0.000000
v 3.000000 0.000000 1.000000
v 3.000000 -0.000000 -0.000000
v 1.000000 4.000000 -0.000000
v 0.000000 4.000000 -0.000000
v 1.000000 4.000000 1.000000
v 0.000000 4.000000 1.000000
v 1.000000 -0.000000 5.000000
v 0.000000 0.000000 5.000000
v 1.000000 1.000000 5.000000
v 0.000000 1.000000 5.000000
vt 0.454545 0.000000
vt 0.363636 0.000000
vt 0.272727 0.000000
vt 0.181818 0.000000
vt 0.090909 0.000000
vt 0.000000 0.000000
vt 1.000000 0.000000
vt 0.545455 0.000000
vt 0.727273 0.000000
vt 0.909091 0.000000
vt 0.636364 0.000000
vt 0.818182 0.000000
vt 0.454545 0.000000
vt 0.272727 0.000000
vt 0.363636 0.000000
vt 0.181818 0.000000
vt 0.000000 0.000000
vt 0.090909 0.000000
vt 1.000000 0.000000
vt 0.545455 0.000000
vt 0.727273 0.000000
vt 0.909091 0.000000
vt 0.636364 0.000000
vt 0.818182 0.000000
vt 0.375000 0.000000
vt 0.125000 0.000000
vt 0.250000 0.000000
vt 0.000000 0.000000
vt 0.875000 0.000000
vt 1.000000 0.000000
vt 0.750000 0.000000
vt 0.500000 0.000000
vt 0.625000 0.000000
vt 0.375000 0.000000
vt 0.250000 0.000000
vt 0.125000 0.000000
vt 0.000000 0.000000
vt 1.000000 0.000000
vt 0.875000 0.000000
vt 0.750000 0.000000
vt 0.500000 0.000000
vt 0.625000 0.000000
vt 1.000000 0.000000
vt 0.857143 0.000000
vt 0.714286 0.000000
vt 0.000000 0.000000
vt 0.571429 0.000000
vt 0.142857 0.000000
vt 0.428571 0.000000
vt 0.285714 0.000000
vt 1.000000 0.000000
vt 0.714286 0.000000
vt 0.857143 0.000000
vt 0.000000 0.000000
vt 0.571429 0.000000
vt 0.142857 0.000000
vt 0.428571 0.000000
vt 0.285714 0.000000
vt 0.625000 0.000000
vt 0.625000 0.250000
vt 0.625000 0.250000
vt 0.625000 0.750000
vt 0.375000 1.000000
vt 0.375000 0.750000
vt 0.375000 0.250000
vt 0.375000 0.000000
vt 0.375000 0.500000
vt 0.125000 0.750000
vt 0.125000 0.500000
vt 0.375000 0.750000
vt 0.375000 0.250000
vt 0.375000 0.500000
vt 0.625000 0.750000
vt 0.625000 0.500000
vt 0.625000 0.500000
vt 0.625000 0.250000
vt 0.375000 0.500000
vt 0.875000 0.500000
vt 0.875000 0.500000
vt 0.625000 0.500000
vt 0.625000 0.500000
vt 0.875000 0.750000
vt 0.625000 0.750000
vt 0.625000 1.000000
vt 0.625000 1.000000
vt 0.625000 0.000000
vt 0.125000 0.500000
vt 0.875000 0.500000
vn -1.0000 0.0000 0.0000
vn 1.0000 0.0000 0.0000
vn 0.0000 0.7721 0.6355
vn 0.0000 -0.7684 0.6400
vn -0.0000 0.7682 -0.6402
vn 0.0000 -0.7736 0.6337
vn 0.0000 -0.7722 -0.6353
vn 0.0000 0.0000 1.0000
vn 0.0000 0.7707 -0.6372
vn 0.0000 0.7716 0.6361
vn -0.0000 0.0000 -1.0000
vn 0.0000 -0.7696 -0.6386
vn 0.0000 -1.0000 0.0000
vn 0.0000 1.0000 0.0000
vn -0.7854 0.0000 -0.6190
vn 0.7890 0.0000 0.6144
vn -0.7857 0.0000 0.6186
vn 0.7863 0.0000 -0.6178
vn 0.8074 -0.5899 0.0000
vn -0.8074 0.5899 0.0000
vn 0.8074 -0.5900 0.0000
vn -0.8074 0.5900 0.0000
usemtl Material
s off
f 6/1/1 5/2/1 4/3/1
f 6/1/1 4/3/1 3/4/1
f 3/4/1 2/5/1 1/6/1
f 3/4/1 1/6/1 12/7/1
f 6/1/1 3/4/1 12/7/1
f 7/8/1 6/1/1 12/7/1
f 7/8/1 12/7/1 9/9/1
f 9/9/1 12/7/1 11/10/1
f 7/8/1 9/9/1 8/11/1
f 10/12/1 9/9/1 11/10/1
f 14/13/2 15/14/2 13/15/2
f 14/13/2 16/16/2 15/14/2
f 16/16/2 18/17/2 17/18/2
f 16/16/2 19/19/2 18/17/2
f 14/13/2 19/19/2 16/16/2
f 20/20/2 19/19/2 14/13/2
f 20/20/2 21/21/2 19/19/2
f 21/21/2 22/22/2 19/19/2
f 20/20/2 23/23/2 21/21/2
f 24/24/2 22/22/2 21/21/2
f 4/3/3 16/16/3 3/4/3
f 7/8/4 14/13/4 6/1/4
f 9/9/5 23/23/5 8/11/5
f 3/4/6 17/18/6 2/5/6
f 10/12/7 21/21/7 9/9/7
f 5/2/8 15/14/8 4/3/8
f 1/6/9 19/19/9 12/7/9
f 12/7/10 22/22/10 11/10/10
f 11/10/11 24/24/11 10/12/11
f 6/1/12 13/15/12 5/2/12
f 8/11/11 20/20/11 7/8/11
f 2/5/8 18/17/8 1/6/8
f 28/25/13 26/26/13 27/27/13
f 28/25/13 25/28/13 26/26/13
f 25/28/13 32/29/13 33/30/13
f 25/28/13 31/31/13 32/29/13
f 28/25/13 31/31/13 25/28/13
f 29/32/13 31/31/13 28/25/13
f 29/32/13 30/33/13 31/31/13
f 35/34/14 34/35/14 36/36/14
f 35/34/14 36/36/14 37/37/14
f 37/37/14 38/38/14 39/39/14
f 37/37/14 39/39/14 40/40/14
f 35/34/14 37/37/14 40/40/14
f 41/41/14 35/34/14 40/40/14
f 41/41/14 40/40/14 42/42/14
f 27/27/15 35/34/15 28/25/15
f 32/29/8 38/38/8 33/30/8
f 30/33/2 40/40/2 31/31/2
f 25/28/16 36/36/16 26/26/16
f 28/25/1 41/41/1 29/32/1
f 33/30/17 37/37/17 25/28/17
f 26/26/8 34/35/8 27/27/8
f 31/31/18 39/39/18 32/29/18
f 29/32/11 42/42/11 30/33/11
f 50/43/11 49/44/11 48/45/11
f 50/43/11 48/45/11 43/46/11
f 43/46/11 48/45/11 47/47/11
f 44/48/11 43/46/11 47/47/11
f 44/48/11 47/47/11 46/49/11
f 44/48/11 46/49/11 45/50/11
f 52/51/8 53/52/8 51/53/8
f 52/51/8 54/54/8 53/52/8
f 54/54/8 55/55/8 53/52/8
f 56/56/8 55/55/8 54/54/8
f 56/56/8 57/57/8 55/55/8
f 56/56/8 58/58/8 57/57/8
f 48/45/19 55/55/19 47/47/19
f 49/44/14 53/52/14 48/45/14
f 45/50/13 56/56/13 44/48/13
f 50/43/1 51/53/1 49/44/1
f 44/48/20 54/54/20 43/46/20
f 43/46/13 52/51/13 50/43/13
f 46/49/2 58/58/2 45/50/2
f 47/47/14 57/57/14 46/49/14
f 65/59/1 78/60/1 63/61/1
f 61/62/13 66/63/13 62/64/13
f 65/59/1 64/65/1 66/66/1
f 60/67/11 66/68/11 64/69/11
f 60/67/11 70/70/11 62/64/11
f 63/61/1 72/71/1 64/65/1
f 68/72/2 69/73/2 70/70/2
f 61/62/8 67/74/8 59/75/8
f 62/64/13 69/73/13 61/62/13
f 59/75/14 68/72/14 60/67/14
f 74/76/14 71/77/14 72/71/14
f 64/69/11 71/77/11 60/67/11
f 59/75/8 74/78/8 63/79/8
f 60/67/2 73/80/2 59/75/2
f 77/81/8 76/82/8 75/83/8
f 59/75/2 75/83/2 61/62/2
f 63/79/14 77/81/14 59/75/14
f 61/62/13 76/84/13 65/85/13
f 65/59/1 76/86/1 78/60/1
f 61/62/13 65/85/13 66/63/13
f 65/59/1 63/61/1 64/65/1
f 60/67/11 62/64/11 66/68/11
f 60/67/11 68/72/11 70/70/11
f 63/61/1 74/76/1 72/71/1
f 68/72/2 67/74/2 69/73/2
f 61/62/8 69/73/8 67/74/8
f 62/64/13 70/70/13 69/73/13
f 59/75/14 67/74/14 68/72/14
f 74/76/14 73/80/14 71/77/14
f 64/69/11 72/87/11 71/77/11
f 59/75/8 73/80/8 74/78/8
f 60/67/2 71/77/2 73/80/2
f 77/81/8 78/88/8 76/82/8
f 59/75/2 77/81/2 75/83/2
f 63/79/14 78/88/14 77/81/14
f 61/62/13 75/83/13 76/84/13
f 4/3/3 15/14/3 16/16/3
f 7/8/4 20/20/4 14/13/4
f 9/9/5 21/21/5 23/23/5
f 3/4/6 16/16/6 17/18/6
f 10/12/7 24/24/7 21/21/7
f 5/2/8 13/15/8 15/14/8
f 1/6/9 18/17/9 19/19/9
f 12/7/10 19/19/10 22/22/10
f 11/10/11 22/22/11 24/24/11
f 6/1/12 14/13/12 13/15/12
f 8/11/11 23/23/11 20/20/11
f 2/5/8 17/18/8 18/17/8
f 27/27/15 34/35/15 35/34/15
f 32/29/8 39/39/8 38/38/8
f 30/33/2 42/42/2 40/40/2
f 25/28/16 37/37/16 36/36/16
f 28/25/1 35/34/1 41/41/1
f 33/30/17 38/38/17 37/37/17
f 26/26/8 36/36/8 34/35/8
f 31/31/18 40/40/18 39/39/18
f 29/32/11 41/41/11 42/42/11
f 48/45/21 53/52/21 55/55/21
f 49/44/14 51/53/14 53/52/14
f 45/50/13 58/58/13 56/56/13
f 50/43/1 52/51/1 51/53/1
f 44/48/22 56/56/22 54/54/22
f 43/46/13 54/54/13 52/51/13
f 46/49/2 57/57/2 58/58/2
f 47/47/14 55/55/14 57/57/14
